<svg width="55" height="47" viewBox="0 0 55 47" fill="none" xmlns="http://www.w3.org/2000/svg">
<path fill-rule="evenodd" clip-rule="evenodd" d="M5.9255 24.9021C5.02623 24.9021 4.29723 24.1711 4.29723 23.2692C4.29723 10.418 14.6855 -1.04767e-05 27.5 -1.10368e-05C33.5837 -1.13028e-05 39.1237 2.35024 43.2607 6.19179C43.9205 6.80452 43.9601 7.83767 43.3491 8.4994C42.7381 9.16112 41.7079 9.20084 41.0481 8.58812C37.4894 5.28347 32.7315 3.26585 27.5 3.26585C16.484 3.26585 7.55376 12.2217 7.55376 23.2692C7.55376 24.1711 6.82476 24.9021 5.9255 24.9021Z" fill="#EEEEF2"/>
<path d="M5.21863 30.6015L0.108469 21.6331C-0.201672 21.0888 0.190225 20.4116 0.815334 20.4116L11.0357 20.4116C11.6608 20.4116 12.0527 21.0888 11.7425 21.6331L6.63236 30.6015C6.31982 31.1501 5.53117 31.1501 5.21863 30.6015Z" fill="#EEEEF2"/>
<path d="M49.7814 15.9369L54.8915 24.9053C55.2017 25.4496 54.8098 26.1268 54.1847 26.1268L43.9643 26.1268C43.3392 26.1268 42.9473 25.4496 43.2575 24.9053L48.3676 15.9369C48.6802 15.3884 49.4688 15.3884 49.7814 15.9369Z" fill="#EEEEF2"/>
<path fill-rule="evenodd" clip-rule="evenodd" d="M49.0717 21.6363C49.971 21.6363 50.7 22.3674 50.7 23.2692C50.7 36.1205 40.3118 46.5385 27.4972 46.5385C21.1975 46.5385 15.4814 44.0185 11.302 39.9325C10.658 39.303 10.6449 38.2692 11.2726 37.6234C11.9003 36.9777 12.9312 36.9645 13.5752 37.594C17.1711 41.1095 22.0806 43.2726 27.4972 43.2726C38.5132 43.2726 47.4435 34.3168 47.4435 23.2692C47.4435 22.3674 48.1725 21.6363 49.0717 21.6363Z" fill="#EEEEF2"/>
</svg>
