<svg width="321" height="37" viewBox="0 0 321 37" fill="none" xmlns="http://www.w3.org/2000/svg">
<path d="M112.984 27.661V34.4524C112.984 35.351 112.403 35.9429 111.497 35.9429H85.983C85.0313 35.9429 84.4737 35.351 84.4737 34.4524V1.53826C84.4737 0.567676 85.0313 0 85.983 0H111.033C111.985 0 112.543 0.591213 112.543 1.53826V8.73113C112.543 9.70171 111.985 10.2929 111.033 10.2929H95.1303V14.4813H106.552C107.62 14.4813 108.271 15.0725 108.271 16.1137V20.941C108.271 21.9109 107.62 22.5263 106.552 22.5263H95.1303V25.6735H110.917C112.194 25.6735 112.984 26.4544 112.984 27.661Z" fill="#EEEEF2"/>
<path d="M81.1496 2.6838L66.5543 35.6296C66.2233 36.3964 65.5151 37 64.641 37H62.0906C61.3112 37 60.5083 36.5126 60.1069 35.6296L54.3442 22.944L48.7232 35.6296C48.3929 36.3964 47.6839 37 46.8106 37H44.2595C43.4801 37 42.6772 36.5126 42.2757 35.6296L27.6099 2.6838C27.1843 1.73146 27.6569 1.05714 28.6961 1.05714H37.2925C38.2377 1.05714 38.9225 1.68456 39.1823 2.4051L45.4639 19.6675L51.7696 2.4051C52.0536 1.61522 52.7854 1.05714 53.6359 1.05714H62.2558C63.3427 1.05714 63.7199 1.77769 63.3185 2.6838L59.8705 10.467L63.295 19.8538L69.6008 2.4051C69.8841 1.61522 70.6165 1.05714 71.4664 1.05714H80.0869C81.1731 1.05714 81.551 1.77769 81.1496 2.6838Z" fill="#EEEEF2"/>
<path d="M117.835 28.966C117.137 29.6939 117.021 30.5166 117.486 31.1036C120.37 34.7449 126.183 37 132.299 37C139.857 37 145.717 32.4658 145.717 25.2305C145.717 18.1127 140.74 16.1862 134.88 14.5181C131.346 13.5077 129.113 12.7565 129.113 11.5819C129.113 10.7358 129.997 10.2664 131.578 10.2664C132.695 10.2664 134.229 10.9001 135.717 11.7929C136.833 12.4506 137.671 12.6857 138.671 11.5111L142.787 6.71846C143.484 5.89644 143.438 4.88609 142.763 4.15823C140.508 1.73821 136.229 0 132.113 0C123.881 0 118.649 4.4634 118.649 11.4643C118.649 17.5017 121.672 20.321 129.392 22.5995C133.834 23.915 134.648 24.3851 134.648 25.4188C134.648 26.2408 133.811 26.7103 131.834 26.7103C129.532 26.7103 127.206 25.4422 125.183 23.8682C124.369 23.2339 123.509 23.1864 122.951 23.7741L117.835 28.966Z" fill="#EEEEF2"/>
<path d="M148.885 1.53826C148.885 0.568368 149.457 0 150.411 0H175.869C176.823 0 177.395 0.591906 177.395 1.53826V7.90315C177.395 8.8502 176.823 9.46495 175.869 9.46495H168.551V34.4288C168.551 35.3752 168.003 35.9429 167.025 35.9429H159.183C158.205 35.9429 157.633 35.3752 157.633 34.4288V9.46495H150.411C149.48 9.46495 148.885 8.89727 148.885 7.90315V1.53826Z" fill="#EEEEF2"/>
<path fill-rule="evenodd" clip-rule="evenodd" d="M209.273 35.9429C210.368 35.9429 210.764 35.2097 210.251 34.2156L205.777 25.8394C209.156 23.2835 211.184 19.3318 211.184 14.6235C211.184 6.12824 204.822 0 196.036 0H182.054C181.191 0 180.562 0.638301 180.562 1.51406V34.4523C180.562 35.3281 181.191 35.9429 182.054 35.9429H189.674C190.583 35.9429 191.259 35.3281 191.259 34.4523V28.9389H196.036L198.856 34.6656C199.205 35.3987 199.928 35.9429 200.581 35.9429H209.273ZM195.314 19.9473H191.259V9.46444H195.314C198.32 9.46444 200.51 11.6182 200.51 14.5757C200.51 17.8177 198.32 19.9473 195.314 19.9473Z" fill="#EEEEF2"/>
<path d="M227.056 21.3635C227.056 24.57 228.745 26.6147 231.775 26.6147C234.665 26.6147 236.492 24.57 236.492 21.3635V2.19574C236.492 1.49831 236.932 1.05714 237.626 1.05714H245.859C246.6 1.05714 247.086 1.49831 247.086 2.19574V21.2473C247.086 30.8897 241.141 37 231.775 37C222.269 37 216.464 30.8897 216.464 21.2704V2.19574C216.464 1.49831 216.857 1.05714 217.458 1.05714H225.993C226.64 1.05714 227.056 1.49831 227.056 2.19574V21.3635Z" fill="#EEEEF2"/>
<path d="M280.719 31.9022L276.291 24.9487C275.876 24.2909 274.861 24.2442 273.984 24.8312C272.831 25.6064 271.009 26.2408 269.81 26.2408C265.38 26.2408 261.874 22.9521 261.874 18.5354C261.874 14.1187 265.38 10.7358 269.81 10.7358C271.101 10.7358 273.015 11.4176 274.123 12.2864C274.861 12.874 275.806 12.7799 276.199 12.1688L280.674 5.28611C281.043 4.69846 280.904 3.8998 280.259 3.42968C277.56 1.45641 272.923 0 269.81 0C259.452 0 251.309 8.0814 251.309 18.5354C251.309 28.9894 259.452 37 269.81 37C273.015 37 277.49 35.5202 280.028 33.7346C280.766 33.2177 281.043 32.4191 280.719 31.9022Z" fill="#EEEEF2"/>
<path d="M320.034 35.9429H310.318C309.729 35.9429 309.236 35.7296 308.882 35.3274L300.342 20.113L296.954 23.7094V34.8546C296.954 35.5406 296.53 35.9429 295.871 35.9429H287.237C286.578 35.9429 286.155 35.5406 286.155 34.8546V1.08828C286.155 0.378681 286.578 0 287.237 0H295.871C296.53 0 296.954 0.378681 296.954 1.08828V9.44141L304.765 0.994124C305.494 0.188994 305.965 0 306.976 0H316.858C317.94 0 318.27 1.0412 317.47 1.86918L307.941 12.0202L320.67 34.1208C321.258 35.1384 321.07 35.9429 320.034 35.9429Z" fill="#EEEEF2"/>
<path fill-rule="evenodd" clip-rule="evenodd" d="M21.0601 2.42369L35.7454 35.3794C36.1455 36.2825 35.7695 37 34.6862 37H23.7721C23.2074 37 22.3982 37 22.1882 36.1551C22.0449 35.5786 21.14 30.3624 21.14 30.3624C20.9768 30.0175 20.7124 29.7269 20.3377 29.7269L15.8455 29.7716C15.5721 29.7716 15.3497 29.9986 15.1858 30.2824C15.1858 30.2824 14.2685 35.2635 14.0157 36.0799C13.8463 36.6274 13.4097 37 12.336 36.9993L1.23807 36.977C0.202305 36.977 -0.268748 36.3055 0.155475 35.3557L14.7739 2.42369C15.1741 1.5436 15.9743 1.05714 16.7511 1.05714H19.1539C20.0244 1.05714 20.731 1.65945 21.0601 2.42369ZM16.1623 24.7072C16.1224 25.0134 16.3641 25.2844 16.6781 25.2844H19.2352C19.5485 25.2844 19.7909 25.0134 19.751 24.7078L21.5787 8.97458C21.5871 8.91464 21.5973 8.85353 21.6076 8.79208C21.6794 8.36246 21.754 7.91611 21.2172 7.73473C20.3384 7.43866 15.559 7.47186 14.6266 7.69747C14.0128 7.84624 14.1005 8.37149 14.1984 8.95854L14.2017 8.97797L16.1623 24.7072Z" fill="#EEEEF2"/>
</svg>
