<svg width="240" height="43" viewBox="0 0 240 43" fill="none" xmlns="http://www.w3.org/2000/svg">
<path d="M18.8411 7.05171L16.73 11.4328C14.3918 10.0822 11.4635 9.12876 9.67023 9.12876C8.21743 9.12876 7.24132 9.66221 7.24132 10.7405C7.24132 14.5541 18.8978 12.3749 18.8978 20.3539C18.8978 24.7691 14.9934 27.0959 10.0788 27.0959C6.39007 27.0959 2.61051 25.7112 0 23.566L2.17921 19.253C4.44921 21.2392 7.85422 22.5559 10.1583 22.5559C11.9175 22.5559 13.0298 21.8976 13.0298 20.6377C13.0298 16.7333 1.37335 19.06 1.37335 11.2512C1.37335 7.18791 4.86916 4.6001 10.1696 4.6001C13.3476 4.6001 16.5938 5.5762 18.8638 7.06305" fill="#EEEEF2"/>
<path d="M36.9331 22.2152V26.9141H21.9624V4.84961H27.5693V22.2152H36.9331Z" fill="#EEEEF2"/>
<path d="M45.2185 4.84961H39.6116V26.9141H45.2185V4.84961Z" fill="#EEEEF2"/>
<path d="M65.0357 26.9027L54.8887 13.3281V26.9027H49.6223V4.84961H54.5709L64.7519 18.4583V4.84961H69.9843V26.9027H65.0357Z" fill="#EEEEF2"/>
<path d="M93.8989 15.6889V24.2922C91.5381 25.9606 87.8153 27.1637 84.7281 27.1637C78.0202 27.1637 72.9468 22.3059 72.9468 15.8818C72.9468 9.45768 78.1451 4.66797 85.114 4.66797C88.3942 4.66797 91.8559 5.92782 94.1259 7.94813L90.9706 11.7617C89.3589 10.2862 87.123 9.36688 85.08 9.36688C81.4593 9.36688 78.6785 12.2044 78.6785 15.8932C78.6785 19.5819 81.482 22.4762 85.1367 22.4762C86.2717 22.4762 87.7245 22.0676 89.0411 21.4093V15.7116H93.8989V15.6889Z" fill="#EEEEF2"/>
<path d="M122.285 7.05171L120.174 11.4328C117.847 10.0822 114.908 9.12876 113.114 9.12876C111.661 9.12876 110.685 9.66221 110.685 10.7405C110.685 14.5541 122.342 12.3749 122.342 20.3539C122.342 24.7691 118.437 27.0959 113.523 27.0959C109.834 27.0959 106.054 25.7112 103.433 23.566L105.612 19.253C107.882 21.2392 111.287 22.5559 113.591 22.5559C115.35 22.5559 116.462 21.8976 116.462 20.6377C116.462 16.7333 104.806 19.06 104.806 11.2512C104.806 7.18791 108.302 4.6001 113.602 4.6001C116.78 4.6001 120.026 5.5762 122.296 7.06305" fill="#EEEEF2"/>
<path d="M140.15 26.9027V18.3334H131.013V26.9027H125.406V4.84961H131.013V13.9183H140.15V4.84961H145.757V26.9027H140.15Z" fill="#EEEEF2"/>
<path d="M154.451 15.8819C154.451 19.6047 157.323 22.4649 160.694 22.4649C164.065 22.4649 166.811 19.5934 166.811 15.8819C166.811 12.1705 164.099 9.35565 160.694 9.35565C157.289 9.35565 154.451 12.1591 154.451 15.8819M172.577 15.8479C172.577 22.272 167.47 27.1639 160.637 27.1639C153.804 27.1639 148.719 22.306 148.719 15.8479C148.719 9.3897 153.827 4.65674 160.637 4.65674C167.447 4.65674 172.577 9.44645 172.577 15.8479Z" fill="#EEEEF2"/>
<path d="M185.017 9.35569V26.9142H179.41V9.35569H172.827V4.81567H191.668V9.35569H185.017Z" fill="#EEEEF2"/>
<path d="M2.32683 32.3394H1.45288V39.9439H2.32683V32.3394Z" fill="#EEEEF2"/>
<path d="M18.7047 39.9439L14.142 33.8376V39.9439H13.2681V32.3394H14.1761L18.7388 38.457V32.3394H19.59V39.9439H18.7047Z" fill="#EEEEF2"/>
<path d="M32.8697 33.1793V39.9439H32.0071V33.1793H29.5215V32.3394H35.3554V33.1793H32.8697Z" fill="#EEEEF2"/>
<path d="M46.1379 33.1793V35.6763H49.9742V36.5162H46.1379V39.1153H50.5757V39.9439H45.2639V32.3394H50.4282V33.1793H46.1379Z" fill="#EEEEF2"/>
<path d="M63.8779 36.7092C65.2626 36.7092 66.0344 36.0963 66.0344 34.9159C66.0344 33.7355 65.2513 33.1794 63.8779 33.1794H61.8576V36.7092H63.8779ZM64.3887 37.5264C64.2298 37.5264 64.0482 37.5491 63.8779 37.5491H61.8576V39.9554H60.9836V32.3508H63.8779C65.7847 32.3508 66.8743 33.2815 66.8743 34.9046C66.8743 36.1644 66.2614 37.0157 65.1718 37.3675L66.9538 39.9554H65.9663L64.3887 37.5264V37.5264Z" fill="#EEEEF2"/>
<path d="M83.5703 36.2327V38.9907C82.8212 39.5923 81.7656 39.9895 80.7441 39.9895C78.5422 39.9895 76.783 38.287 76.783 36.1419C76.783 33.9967 78.5536 32.3169 80.7895 32.3169C81.8451 32.3169 82.8666 32.7141 83.593 33.3611L83.0936 34.008C82.4693 33.4519 81.6408 33.1227 80.7895 33.1227C79.053 33.1227 77.6569 34.462 77.6569 36.1305C77.6569 37.799 79.0643 39.1496 80.8009 39.1496C81.4819 39.1496 82.2196 38.9113 82.7985 38.5027V36.21H83.5703V36.2327Z" fill="#EEEEF2"/>
<path d="M97.0541 33.3268L95.3629 37.1858H98.7793L97.0654 33.3268H97.0541ZM94.9884 38.0257L94.1371 39.9439H93.2178L96.6341 32.3394H97.5308L100.936 39.9439H99.9937L99.1425 38.0257H94.9884V38.0257Z" fill="#EEEEF2"/>
<path d="M114.976 39.1153V39.9439H110.776V32.3394H111.639V39.1153H114.976Z" fill="#EEEEF2"/>
<path d="M127.858 33.3268L126.167 37.1858H129.583L127.869 33.3268H127.858ZM125.792 38.0257L124.941 39.9439H124.022L127.438 32.3394H128.335L131.74 39.9439H130.798L129.946 38.0257H125.792V38.0257Z" fill="#EEEEF2"/>
<path d="M147.426 33.4292L146.903 34.0875C146.313 33.4859 145.496 33.1341 144.656 33.1341C142.942 33.1341 141.558 34.462 141.558 36.1305C141.558 37.799 142.942 39.1269 144.656 39.1269C145.496 39.1269 146.313 38.7751 146.903 38.2189L147.437 38.8205C146.688 39.5242 145.666 39.9895 144.611 39.9895C142.42 39.9895 140.684 38.287 140.684 36.1305C140.684 33.974 142.443 32.3169 144.645 32.3169C145.689 32.3169 146.699 32.7368 147.426 33.4292" fill="#EEEEF2"/>
<path d="M159.956 33.1793V39.9439H159.093V33.1793H156.608V32.3394H162.453V33.1793H159.956Z" fill="#EEEEF2"/>
<path d="M173.236 32.3394H172.362V39.9439H173.236V32.3394Z" fill="#EEEEF2"/>
<path d="M190.204 33.4292L189.682 34.0875C189.091 33.4859 188.274 33.1341 187.434 33.1341C185.72 33.1341 184.336 34.462 184.336 36.1305C184.336 37.799 185.72 39.1269 187.434 39.1269C188.274 39.1269 189.091 38.7751 189.682 38.2189L190.215 38.8205C189.466 39.5242 188.444 39.9895 187.389 39.9895C185.198 39.9895 183.45 38.287 183.45 36.1305C183.45 33.974 185.21 32.3169 187.412 32.3169C188.456 32.3169 189.466 32.7368 190.192 33.4292" fill="#EEEEF2"/>
<path d="M234.651 32.6005C235.445 31.3293 236.081 29.99 236.557 28.5826C237.17 26.778 237.522 24.9166 237.59 22.9984C237.647 21.33 237.511 19.6729 237.125 18.0498C236.773 16.5402 236.251 15.0874 235.525 13.7027C234.98 12.6472 234.344 11.6484 233.606 10.7177C232.676 9.54863 231.62 8.49307 230.417 7.58507C229.52 6.90407 228.59 6.31387 227.591 5.81446C226.603 5.31506 225.571 4.91781 224.504 4.62271C224.004 4.48651 223.505 4.39571 222.994 4.29356C222.96 4.28221 222.926 4.25951 222.881 4.24816C222.041 4.15736 221.19 4.02116 220.35 3.98711C218.602 3.90766 216.865 4.12331 215.174 4.58866C213.585 5.03131 212.075 5.67826 210.668 6.57492C209.715 7.18782 208.807 7.86882 207.989 8.65197C207.047 9.55998 206.219 10.5701 205.492 11.6711C204.755 12.7947 204.187 13.9978 203.756 15.269C203.291 16.6424 203.018 18.0612 202.95 19.5253C202.882 21.0122 203.018 22.4877 203.381 23.9291C203.665 25.0755 204.085 26.1537 204.618 27.1979C205.197 28.3102 205.901 29.3317 206.73 30.2511C207.592 31.2045 208.58 32.033 209.681 32.714C210.055 32.941 210.441 33.1226 210.827 33.3269C211.167 33.4858 211.497 33.6561 211.837 33.8036C213.199 34.4052 214.641 34.7003 216.116 34.8025C217.966 34.9273 219.771 34.6663 221.519 34.0533C223.153 33.4745 224.617 32.6119 225.911 31.4542C227.012 30.4781 227.909 29.3431 228.624 28.0378C229.43 26.5623 229.918 24.996 230.077 23.3389C230.27 21.4662 230.02 19.6502 229.328 17.9023C228.805 16.5856 228.079 15.3939 227.103 14.3724C226.376 13.6119 225.571 12.9763 224.651 12.4429C223.823 11.9662 222.96 11.603 222.041 11.3646C220.667 11.0128 219.283 10.9447 217.875 11.183C216.207 11.4554 214.709 12.1137 213.381 13.1579C212.28 14.0205 211.44 15.0988 210.838 16.37C210.339 17.4142 210.055 18.5152 209.998 19.6729C209.942 21.1824 210.259 22.5898 211.009 23.9064C211.644 25.0414 212.507 25.9381 213.63 26.585C215.083 27.4249 216.65 27.7087 218.295 27.3568C219.476 27.1071 220.509 26.551 221.348 25.6884C222.041 24.962 222.54 24.1107 222.733 23.1119C223.017 21.6591 222.779 20.3198 221.734 19.2075C220.781 18.1747 219.612 17.8001 218.25 18.2655C217.467 18.5379 216.854 19.2302 216.842 20.0701C216.842 20.5355 217.081 21.0462 217.535 21.1484C217.739 21.1938 217.932 21.1938 218.057 21.0689C217.932 20.876 217.785 20.7284 217.728 20.5468C217.603 20.1042 217.819 19.775 218.148 19.5026C218.761 19.0032 219.646 19.06 220.282 19.4686C221.258 20.0815 221.7 21.0122 221.655 22.1358C221.587 23.9405 220.565 25.1322 218.988 25.87C217.921 26.3694 216.774 26.4148 215.651 26.1083C213.801 25.6203 212.495 24.4399 211.724 22.7033C210.986 21.0349 210.952 19.2983 211.565 17.5845C212.087 16.1089 212.972 14.8718 214.255 13.9184C215.617 12.8969 217.138 12.3294 218.829 12.2045C220.259 12.1024 221.644 12.3407 222.96 12.8855C223.709 13.192 224.402 13.6233 225.049 14.1113C226.149 14.9399 227.001 15.9727 227.648 17.1645C228.51 18.7535 228.919 20.4674 228.885 22.2834C228.851 23.827 228.522 25.3025 227.863 26.7099C227.443 27.6179 226.91 28.4691 226.263 29.2409C225.287 30.41 224.129 31.3634 222.79 32.0784C222.052 32.4757 221.292 32.7935 220.486 33.0318C219.351 33.3723 218.182 33.5426 217.001 33.5426C215.038 33.5426 213.165 33.0999 211.406 32.226C211.213 32.1238 211.009 32.0444 210.804 31.9536C210.804 31.9309 210.804 31.8968 210.782 31.8968C210.293 31.579 209.805 31.2726 209.34 30.9321C208.182 30.1035 207.24 29.0593 206.434 27.8789C205.708 26.812 205.163 25.6657 204.766 24.4399C204.244 22.8282 204.028 21.1824 204.108 19.5026C204.187 17.8341 204.55 16.2224 205.186 14.6675C205.901 12.9309 206.888 11.376 208.182 10.0253C209.136 9.02652 210.18 8.15257 211.36 7.43752C212.325 6.84732 213.335 6.37062 214.391 5.98471C215.583 5.56476 216.797 5.30371 218.057 5.16751C219.135 5.05401 220.213 5.05401 221.292 5.16751C221.848 5.22426 222.404 5.32641 222.96 5.40586C222.994 5.41721 223.028 5.43991 223.074 5.45126C224.492 5.74636 225.843 6.23442 227.126 6.90407C227.977 7.33537 228.783 7.84612 229.543 8.42497C230.599 9.20812 231.541 10.1161 232.369 11.1376C233.255 12.2159 234.038 13.3736 234.594 14.6561C235.003 15.5868 235.366 16.5402 235.661 17.505C236.013 18.6514 236.183 19.8431 236.262 21.0462C236.353 22.4536 236.296 23.8497 236.058 25.2344C235.876 26.3013 235.604 27.3568 235.23 28.3897C234.889 29.2977 234.514 30.1716 234.049 31.0229C233.391 32.2373 232.585 33.361 231.7 34.4165C230.814 35.4608 229.804 36.3574 228.715 37.1746C227.5 38.094 226.195 38.8431 224.799 39.4333C223.891 39.8192 222.949 40.1143 222.007 40.3753C220.543 40.7839 219.056 40.9769 217.535 41.0109C215.821 41.045 214.118 40.8747 212.45 40.4661C211.894 40.3299 211.349 40.1597 210.793 40.0121C210.759 39.9894 210.725 39.9781 210.691 39.9554C209.669 39.5127 208.636 39.1041 207.649 38.6047C206.559 38.0486 205.572 37.3222 204.607 36.5617C203.313 35.5288 202.201 34.3371 201.202 33.0205C200.498 32.0898 199.863 31.125 199.363 30.0695C199.023 29.3431 198.716 28.6053 198.41 27.8676C198.274 27.5384 198.149 27.1866 198.024 26.8461C198.024 26.8007 198.013 26.7553 197.99 26.7099C197.911 26.4488 197.82 26.1878 197.729 25.9381C197.729 25.8813 197.763 25.8359 197.752 25.7792C197.627 25.0982 197.491 24.4285 197.354 23.7475C197.309 23.5432 197.298 23.3276 197.264 23.1119C197.241 23.1119 197.218 23.1119 197.196 23.1119C197.286 23.7929 197.366 24.4626 197.457 25.1436C197.491 25.4046 197.57 25.6657 197.638 25.9267C197.661 26.1083 197.672 26.2899 197.718 26.4602C197.797 26.7553 197.899 27.0504 197.99 27.3455C198.001 27.4476 197.99 27.5498 198.024 27.6519C198.501 29.3658 199.216 30.9661 200.113 32.4984C200.748 33.588 201.475 34.6095 202.314 35.5516C203.608 37.0157 205.038 38.321 206.684 39.3879C207.626 40.0008 208.648 40.4775 209.692 40.8974C210.055 41.045 210.43 41.1358 210.793 41.2493C210.85 41.2833 210.918 41.3287 210.974 41.3514C212.654 41.8508 214.357 42.1686 216.116 42.2481C218.375 42.3502 220.599 42.1005 222.779 41.4876C224.379 41.0336 225.911 40.398 227.364 39.5581C228.862 38.6955 230.247 37.674 231.484 36.4709C232.687 35.3019 233.72 34.0079 234.605 32.5778" fill="#EEEEF2"/>
<path d="M199.012 25.8019C199.012 25.8019 199.08 25.904 199.114 25.9494C199.114 26.0289 199.102 26.1197 199.125 26.1878C199.432 27.0163 199.727 27.8676 200.079 28.6848C200.85 30.4894 201.94 32.0898 203.234 33.5539C204.244 34.7003 205.39 35.7105 206.673 36.5504C207.535 37.1065 208.432 37.5946 209.34 38.0713C209.794 38.3096 210.316 38.4345 210.804 38.6161C210.85 38.6615 210.895 38.7182 210.941 38.7409C211.19 38.8317 211.429 38.9225 211.69 38.9906C213.086 39.3992 214.504 39.683 215.946 39.7624C217.251 39.8419 218.556 39.7965 219.85 39.5922C220.883 39.4333 221.905 39.1836 222.903 38.8431C224.027 38.4685 225.105 38.0145 226.127 37.4243C227.182 36.8228 228.181 36.1304 229.101 35.3132C230.202 34.3371 231.189 33.2588 232.029 32.0444C232.789 30.9321 233.47 29.763 233.913 28.4918C234.242 27.5611 234.526 26.5964 234.764 25.6316C235.037 24.4739 235.116 23.2935 235.116 22.1018C235.116 20.7965 234.991 19.4913 234.628 18.2314C234.356 17.3007 234.049 16.3813 233.686 15.4847C233.436 14.8604 233.05 14.2929 232.733 13.7027C232.733 13.6687 232.733 13.646 232.71 13.6119C232.086 12.6245 231.382 11.6938 230.553 10.8652C229.396 9.70752 228.102 8.74277 226.649 7.99367C225.82 7.56237 224.958 7.21051 224.072 6.93811C222.654 6.51816 221.212 6.29116 219.725 6.29116C218.091 6.29116 216.513 6.55221 214.97 7.07431C213.63 7.52832 212.382 8.16392 211.224 8.99247C210.067 9.82102 209.045 10.7971 208.182 11.9094C207.081 13.3282 206.298 14.9172 205.822 16.6651C205.175 19.0259 205.175 21.3754 205.844 23.7135C206.4 25.6884 207.422 27.4136 208.852 28.8777C210.067 30.1262 211.508 31.0456 213.154 31.6585C214.595 32.1919 216.082 32.4303 217.603 32.3395C220.145 32.1919 222.404 31.3066 224.322 29.5928C225.684 28.3783 226.672 26.9142 227.239 25.1776C227.909 23.1346 227.931 21.0689 227.205 19.0259C226.638 17.4142 225.696 16.0749 224.322 15.042C223.471 14.3951 222.54 13.9411 221.519 13.6573C219.601 13.1466 217.751 13.3282 215.991 14.2589C214.391 15.1101 213.256 16.3813 212.711 18.1292C212.155 19.8885 212.303 21.591 213.403 23.1119C214.516 24.6442 216.025 25.3819 217.932 24.996C219.271 24.7236 220.213 23.9178 220.531 22.5331C220.713 21.7726 220.554 21.0576 219.964 20.4901C219.555 20.0928 218.931 20.0247 218.488 20.3085C218.284 20.4333 218.17 20.7284 218.25 20.9327C218.772 20.7284 219.192 20.8646 219.408 21.3413C219.589 21.7499 219.589 22.1699 219.408 22.5671C218.954 23.5432 218.114 23.9632 217.092 23.9405C215.662 23.9064 214.641 23.146 214.028 21.8861C213.154 20.0588 213.608 18.1065 214.845 16.6537C215.855 15.4733 217.16 14.8037 218.704 14.6334C220.713 14.4064 222.461 14.9853 223.97 16.3132C224.867 17.1077 225.537 18.0611 225.979 19.1848C226.308 20.0474 226.501 20.9327 226.524 21.8521C226.558 23.0665 226.342 24.2356 225.877 25.3706C225.514 26.2559 225.026 27.0617 224.402 27.7881C223.278 29.0934 221.893 30.0241 220.259 30.5916C219.124 30.9888 217.966 31.1477 216.763 31.125C215.651 31.1023 214.561 30.8867 213.517 30.5008C212.529 30.1376 211.587 29.6495 210.77 28.9912C209.805 28.2194 208.977 27.3228 208.307 26.2786C207.74 25.3933 207.308 24.4512 207.002 23.4524C206.65 22.2607 206.48 21.0349 206.525 19.7864C206.571 18.6059 206.764 17.4596 207.127 16.3359C207.513 15.1669 208.058 14.0659 208.773 13.0671C209.442 12.1251 210.191 11.2398 211.133 10.5361C211.826 10.0253 212.529 9.50322 213.29 9.08327C214.55 8.37957 215.9 7.92557 217.331 7.67587C218.613 7.46022 219.896 7.40347 221.178 7.55102C222.71 7.72127 224.186 8.14122 225.582 8.79952C226.887 9.41242 228.056 10.2069 229.123 11.1717C229.929 11.8981 230.644 12.7266 231.246 13.6233C231.268 13.6573 231.325 13.68 231.359 13.7027C231.359 13.7481 231.359 13.8049 231.382 13.8389C231.927 14.6221 232.358 15.462 232.721 16.3359C233.175 17.4142 233.493 18.5265 233.686 19.6729C233.89 20.9441 233.947 22.2153 233.834 23.5092C233.731 24.7236 233.504 25.904 233.118 27.0617C232.812 28.0151 232.415 28.9345 231.927 29.8198C231.325 30.9321 230.61 31.9649 229.77 32.907C228.306 34.53 226.592 35.8467 224.617 36.8001C223.494 37.3449 222.347 37.7875 221.133 38.0599C219.226 38.5026 217.308 38.6842 215.356 38.4572C214.062 38.3096 212.802 38.0486 211.565 37.6286C211.338 37.5492 211.099 37.5038 210.861 37.447C210.77 37.3903 210.691 37.3222 210.6 37.2768C209.828 36.8909 209.011 36.5731 208.273 36.1191C207.467 35.6424 206.707 35.0749 205.981 34.496C204.982 33.7015 204.108 32.7821 203.325 31.772C202.598 30.8413 201.94 29.8652 201.441 28.7869C201.055 27.9584 200.737 27.0958 200.396 26.2559C200.351 26.1537 200.294 26.0516 200.237 25.9381C200.237 25.8927 200.26 25.8473 200.249 25.8019C200.169 25.5068 200.09 25.223 200.01 24.9279C199.681 23.6908 199.522 22.4309 199.466 21.1597C199.398 19.3437 199.579 17.539 200.022 15.7684C200.408 14.2021 200.987 12.7266 201.736 11.2965C202.507 9.80967 203.472 8.44767 204.584 7.21051C205.89 5.75771 207.388 4.52056 209.068 3.49905C209.964 2.95425 210.884 2.4435 211.86 2.06895C212.757 1.7398 213.664 1.3993 214.584 1.13825C215.742 0.797745 216.922 0.616145 218.125 0.513995C219.374 0.411844 220.622 0.400494 221.871 0.513995C222.245 0.548045 222.62 0.582095 223.006 0.616145C223.006 0.559395 223.006 0.502645 223.028 0.445894C222.937 0.411844 222.858 0.366444 222.767 0.355094C221.871 0.252944 220.985 0.116743 220.089 0.0486432C218.273 -0.0875572 216.479 0.0713433 214.697 0.411844C213.369 0.672895 212.075 1.07015 210.872 1.5582C210.827 1.6717 208.705 2.56835 208.035 2.9429C207.717 3.1245 206.73 3.89631 206.537 4.04386C205.89 4.56596 205.209 5.06536 204.596 5.63286C203.438 6.68841 202.439 7.89152 201.622 9.23082C201.089 10.1161 200.567 11.0128 200.147 11.9548C199.613 13.1579 199.159 14.3951 198.864 15.689C198.603 16.8126 198.41 17.9363 198.353 19.0827C198.308 19.9339 198.319 20.7965 198.353 21.6591C198.399 23.0552 198.671 24.4172 199.023 25.7678" fill="#EEEEF2"/>
<path d="M239.849 19.0713C239.656 17.7661 239.338 16.5062 238.907 15.2577C238.498 14.0659 237.988 12.9196 237.341 11.8413C236.921 11.1376 236.455 10.4453 235.99 9.76428C235.877 9.59403 235.695 9.45783 235.547 9.29893C235.525 9.23083 235.513 9.15138 235.468 9.10598C235.241 8.82223 235.014 8.53848 234.764 8.26608C233.709 7.11972 232.562 6.06417 231.257 5.20157C230.406 4.64542 229.509 4.11197 228.601 3.65796C227.795 3.24936 226.944 2.92021 226.093 2.62511C224.878 2.20516 223.619 1.94411 222.336 1.78521C220.702 1.58091 219.067 1.59226 217.433 1.78521C216.309 1.92141 215.208 2.17111 214.119 2.50026C212.734 2.92021 211.417 3.49906 210.157 4.20277C209.136 4.78162 208.183 5.46262 207.286 6.21172C206.003 7.28997 204.891 8.52713 203.926 9.90048C202.848 11.4441 202.031 13.1125 201.463 14.9058C200.953 16.5062 200.669 18.152 200.623 19.8318C200.567 21.5683 200.771 23.2822 201.225 24.962C201.316 25.2911 201.441 25.6203 201.554 25.9494C201.577 26.0402 201.577 26.131 201.611 26.2218C201.758 26.6191 201.929 27.005 202.088 27.3909C202.655 28.7529 203.427 30.0127 204.358 31.1591C205.515 32.5892 206.855 33.815 208.421 34.7911C209.647 35.5629 210.952 36.1758 212.325 36.5958C214.039 37.1179 215.798 37.3676 217.603 37.2995C218.749 37.2541 219.884 37.1292 220.985 36.8001C221.7 36.5958 222.415 36.3574 223.096 36.085C223.732 35.824 224.368 35.5289 224.969 35.1884C225.957 34.6322 226.853 33.9739 227.682 33.2021C228.647 32.3168 229.487 31.3407 230.202 30.2397C230.837 29.2636 231.393 28.2421 231.734 27.1298C231.995 26.3013 232.222 25.45 232.404 24.5988C232.619 23.6113 232.631 22.6125 232.596 21.6024C232.54 20.1382 232.279 18.7195 231.745 17.3688C231.427 16.5516 231.019 15.7571 230.61 14.9853C230.372 14.5313 230.02 14.1454 229.714 13.7254C229.6 13.5665 229.487 13.3963 229.362 13.2487C228.204 11.9435 226.887 10.8425 225.321 10.0594C224.073 9.43513 222.779 9.01518 221.405 8.81088C220.077 8.61793 218.749 8.64063 217.421 8.86763C215.98 9.11733 214.629 9.61673 213.37 10.3545C212.257 11.0014 211.281 11.8186 210.453 12.7947C210.191 13.1012 209.953 13.453 209.715 13.7708C209.647 13.8503 209.556 13.9297 209.499 14.0205C209.011 14.781 208.602 15.5755 208.307 16.4268C207.899 17.5845 207.66 18.7762 207.66 20.002C207.66 21.6024 207.978 23.146 208.693 24.5988C209.363 25.9835 210.316 27.1298 211.519 28.0605C212.654 28.9345 213.937 29.5133 215.356 29.7744C216.65 30.0127 217.932 29.9787 219.203 29.6382C220.951 29.1728 222.427 28.2535 223.562 26.8347C223.8 26.5396 224.266 25.7792 224.3 25.7338C225.196 24.0994 225.503 22.3742 225.071 20.5468C224.595 18.5265 223.448 17.0283 221.519 16.2111C219.657 15.4166 217.864 15.5982 216.241 16.8581C214.993 17.8228 214.3 19.6275 214.913 21.1711C215.288 22.1131 215.991 22.7601 217.036 22.8509C217.705 22.9076 218.318 22.5671 218.556 22.011C218.738 21.6024 218.556 21.137 218.171 21.0462C218.193 21.3073 218.125 21.5456 217.898 21.6932C217.501 21.9542 217.081 21.9429 216.684 21.6932C216.003 21.2619 215.742 20.5922 215.821 19.8204C215.946 18.5379 216.706 17.698 217.864 17.2213C219.26 16.6538 220.599 16.8921 221.814 17.7093C222.869 18.413 223.55 19.4232 223.857 20.649C224.254 22.2266 224.039 23.7248 223.244 25.1436C223.119 25.3706 222.733 25.9494 222.665 26.0289C222.484 26.2218 222.336 26.4375 222.143 26.6191C221.371 27.3682 220.475 27.947 219.453 28.2989C218.171 28.7415 216.854 28.8323 215.526 28.5713C214.175 28.3102 212.972 27.7314 211.928 26.8574C211.168 26.2218 210.498 25.4841 210.021 24.6101C209.59 23.8383 209.272 23.0211 209.068 22.1472C208.739 20.7398 208.761 19.3437 209.068 17.9477C209.363 16.6084 209.953 15.3825 210.748 14.2589C210.861 14.1 210.975 13.9411 211.088 13.7822C211.61 13.2828 212.11 12.7493 212.654 12.284C213.835 11.2852 215.208 10.6269 216.706 10.2296C218.5 9.75293 220.304 9.73023 222.12 10.1502C224.152 10.6269 225.923 11.5689 227.444 12.999C227.693 13.2374 227.954 13.4757 228.204 13.7141C228.227 13.7481 228.238 13.7935 228.272 13.8276C228.601 14.2589 228.964 14.6788 229.271 15.1328C229.997 16.2111 230.531 17.3915 230.894 18.6514C231.223 19.7977 231.382 20.9554 231.382 22.1358C231.382 23.7135 231.121 25.2344 230.576 26.7099C229.963 28.3897 229.067 29.8992 227.875 31.2272C226.388 32.8843 224.606 34.1442 222.529 34.9841C221.042 35.5856 219.499 35.9261 217.898 36.0283C215.946 36.1418 214.039 35.8694 212.189 35.2338C210.532 34.6663 209.034 33.8377 207.672 32.7481C206.673 31.9423 205.776 31.0229 205.005 29.99C204.221 28.9458 203.574 27.8335 203.064 26.6304C202.962 26.3921 202.837 26.1651 202.735 25.9267C202.735 25.87 202.746 25.8132 202.735 25.7678C202.644 25.4614 202.53 25.1663 202.439 24.8598C202.122 23.7929 201.917 22.7033 201.838 21.6024C201.736 20.2631 201.792 18.9238 202.008 17.5845C202.246 16.143 202.666 14.7583 203.245 13.419C203.892 11.9548 204.721 10.5928 205.742 9.36703C206.9 7.98233 208.228 6.76787 209.749 5.78042C210.918 5.01997 212.144 4.39572 213.438 3.90767C215.186 3.26071 216.99 2.89751 218.863 2.79536C220.248 2.71591 221.621 2.79536 222.983 3.03371C224.129 3.22666 225.253 3.53311 226.331 3.94172C227.489 4.38437 228.613 4.88377 229.645 5.57612C230.429 6.09822 231.178 6.65437 231.927 7.23323C233.039 8.09583 233.958 9.16273 234.832 10.2637C235.059 10.5588 235.286 10.8652 235.502 11.1603C235.547 11.2511 235.582 11.3533 235.638 11.4327C236.206 12.284 236.705 13.1693 237.091 14.1113C237.454 15.0193 237.806 15.9501 238.101 16.8921C238.487 18.1406 238.691 19.4345 238.782 20.7398C238.896 22.3401 238.839 23.9178 238.589 25.5068C238.396 26.7326 238.113 27.947 237.681 29.1047C237.352 29.9787 236.989 30.8526 236.569 31.6925C236.206 32.4303 235.774 33.134 235.332 33.8264C234.969 34.4052 234.56 34.9614 234.129 35.4835C233.289 36.5163 232.358 37.447 231.359 38.321C231.325 38.355 231.303 38.4118 231.28 38.4685C231.212 38.5026 231.132 38.5139 231.064 38.5593C230.712 38.8204 230.361 39.1041 229.997 39.3652C229.736 39.5581 229.464 39.7397 229.203 39.9327C229.26 39.9327 229.305 39.9327 229.339 39.8986C229.895 39.5354 230.44 39.1836 230.985 38.809C231.121 38.7182 231.223 38.582 231.348 38.4685C231.609 38.2983 231.881 38.1394 232.131 37.9351C233.743 36.5958 235.139 35.0635 236.308 33.327C236.978 32.3395 237.59 31.3066 238.044 30.2057C238.453 29.2182 238.85 28.2081 239.168 27.1979C239.531 26.0516 239.724 24.8712 239.883 23.6681C240.076 22.1245 240.019 20.5922 239.792 19.06" fill="#EEEEF2"/>
<path d="M224.821 2.13697C224.821 2.13697 224.912 2.19372 224.969 2.20507C225.366 2.31857 225.764 2.42072 226.161 2.54557C226.558 2.67042 226.944 2.80662 227.341 2.94282C226.592 2.57962 225.832 2.26182 225.014 2.06887C224.583 1.94402 224.152 1.81917 223.721 1.70567C223.494 1.64892 223.267 1.63757 223.04 1.60352C223.04 1.66027 223.028 1.71702 223.017 1.77377C223.618 1.88727 224.22 2.01212 224.821 2.13697" fill="#EEEEF2"/>
</svg>
