<svg viewBox="0 0 169 39" xmlns="http://www.w3.org/2000/svg"><defs><filter id="a"><feColorMatrix in="SourceGraphic" values="0 0 0 0 0.934718 0 0 0 0 0.934718 0 0 0 0 0.947896 0 0 0 1.000000 0"/></filter></defs><g transform="translate(-49 -91)" filter="url(#a)" fill="none" fill-rule="evenodd"><g fill="#1D2145"><path d="M79.588 113.31h-8.314v8.248h-7.528v-8.248h-8.183v-7.529h8.183v-8.248h7.528v8.248h8.314v7.529Zm-8.314-22.258h-7.533L49 105.784v7.527l14.74 14.695h7.534L86.01 113.31v-7.528l-14.736-14.73Z"/><path d="M49.01 105.781h14.736V91.052M71.276 91.052v14.729h14.736M63.741 128.006l-.005-14.697H49M86.01 113.309H71.276v14.698M92.746 100.694h3.192l5.612 14.879 5.611-14.879h3.192v18.329h-2.419v-14.751h-.052l-5.354 14.751h-1.956l-5.355-14.751h-.051v14.751h-2.42v-18.329M119.158 117.684c3.038 0 3.759-2.78 3.759-4.814 0-2.033-.721-4.813-3.759-4.813-3.037 0-3.758 2.78-3.758 4.813 0 2.034.72 4.814 3.758 4.814Zm0-11.275c3.759 0 6.024 2.729 6.024 6.461 0 3.733-2.265 6.462-6.024 6.462-3.758 0-6.023-2.729-6.023-6.462 0-3.732 2.265-6.461 6.023-6.461ZM133.034 117.53c2.729 0 3.836-2.214 3.836-4.66 0-2.445-1.39-4.659-3.836-4.659-2.729 0-3.835 2.214-3.835 4.66 0 2.445 1.106 4.659 3.835 4.659Zm5.87 1.493h-2.111v-1.468h-.052.026c-.85 1.159-2.291 1.777-3.784 1.777-4.557 0-6.05-3.166-6.05-6.462 0-3.295 1.648-6.461 5.87-6.461 1.647 0 3.037.618 3.938 1.853h.052v-7.568h2.11v18.329ZM150.592 111.686c-.258-2.008-1.39-3.63-3.708-3.63-2.059 0-3.243 1.751-3.372 3.63h7.08Zm-7.08 1.648c0 2.445 1.287 4.35 3.707 4.35 1.853 0 2.987-.927 3.45-2.755l2.085.258c-.798 2.754-2.883 4.145-5.612 4.145-3.758.077-5.895-2.858-5.895-6.359 0-3.99 1.88-6.564 5.87-6.564 3.86 0 5.74 2.806 5.74 6.436v.489h-9.345ZM155.355 106.718h2.11v2.11h.052c1.004-1.673 2.214-2.264 4.35-2.264v2.316a28.055 28.055 0 0 0-1.415-.051c-2.034 0-2.986 1.88-2.986 3.295v6.899h-2.111v-12.305M163.927 106.718h2.11v1.647h.052c.799-1.235 2.008-1.956 3.604-1.956 2.471 0 4.351 1.081 4.351 4.505v8.109h-2.111v-7.903c0-2.111-1.107-2.755-2.6-2.755-1.956 0-3.295 1.262-3.295 3.244v7.414h-2.111v-12.305M177.34 100.694h6.718l3.244 13.618h.051l3.347-13.618h6.641v18.329h-4.324v-14.236h-.052l-3.63 14.236h-4.041l-3.733-14.236h-.051v14.236h-4.17v-18.329M205.245 115.162h2.626c3.424 0 4.66-2.343 4.66-5.304 0-2.96-1.236-5.303-4.685-5.303h-2.6v10.607Zm-4.582-14.468h7.105c5.586 0 9.345 2.652 9.345 9.164 0 6.513-3.759 9.165-9.345 9.165h-7.105v-18.329ZM146.525 124.631h.65v2.996c0 1.222.519 1.609 1.176 1.609.673 0 1.208-.387 1.208-1.61v-2.995h.619v2.98c0 1.633-.79 2.19-1.827 2.19s-1.826-.557-1.826-2.19v-2.98M154.474 127.038h.851c.79 0 1.223-.325 1.223-.983 0-.665-.433-.905-1.223-.905h-.85v1.888Zm2.136 2.67-1.222-2.143h-.914v2.143h-.65v-5.077h1.595c1.029 0 1.771.372 1.771 1.424 0 .79-.448 1.262-1.137 1.44l1.292 2.213h-.735ZM162.655 124.539c.69 0 1.154.317 1.456.626l-.372.41c-.255-.27-.572-.471-1.075-.471-1.03 0-1.688.789-1.688 2.05 0 1.277.604 2.082 1.688 2.082.363 0 .72-.116.92-.302v-1.323h-1.075v-.534h1.664v2.136c-.333.325-.898.588-1.58.588-1.33 0-2.282-.975-2.282-2.631 0-1.633.983-2.631 2.344-2.631M167.664 124.631h2.925v.542h-2.275v1.594h1.92v.55h-1.92v1.842h2.353v.549h-3.003v-5.077M174.414 124.631h.666l1.841 3.189.55 1.052h.031c-.03-.51-.086-1.083-.086-1.617v-2.624h.612v5.077h-.665l-1.834-3.196-.55-1.045h-.031c.03.51.077 1.053.077 1.587v2.654h-.611v-5.077M182.766 125.173h-1.54v-.542h3.723v.542h-1.541v4.535h-.642v-4.535M193.3 124.539c.605 0 1.084.293 1.386.626l-.364.41c-.27-.286-.596-.471-1.014-.471-.967 0-1.61.789-1.61 2.05 0 1.277.612 2.082 1.58 2.082.48 0 .835-.201 1.16-.565l.364.395c-.395.464-.897.735-1.54.735-1.277 0-2.229-.975-2.229-2.631 0-1.633.967-2.631 2.267-2.631M200.19 127.642l-.24-.774a50.394 50.394 0 0 1-.503-1.71h-.031a48.636 48.636 0 0 1-.503 1.71l-.248.774h1.525Zm.162.518h-1.85l-.487 1.548h-.658l1.718-5.077h.728l1.718 5.077h-.681l-.488-1.548ZM205.167 127.038h.851c.79 0 1.223-.325 1.223-.983 0-.665-.433-.905-1.223-.905h-.85v1.888Zm2.136 2.67-1.223-2.143h-.913v2.143h-.65v-5.077h1.594c1.03 0 1.772.372 1.772 1.424 0 .79-.448 1.262-1.137 1.44l1.292 2.213h-.735ZM211.298 124.631h2.925v.542h-2.275v1.594h1.919v.55h-1.919v1.842h2.352v.549h-3.002v-5.077"/></g></g></svg>