<svg width="75" height="75" viewBox="0 0 75 75" fill="none" xmlns="http://www.w3.org/2000/svg">
<path id="Fill 18" fill-rule="evenodd" clip-rule="evenodd" d="M2.4858 42.7962C8.80682 42.2275 15.1278 43.6493 20.5966 46.7772C22.0881 47.6303 23.5085 48.6256 24.858 49.763C22.7983 51.3981 20.6676 53.673 20.7386 56.4455C20.7386 57.7962 21.4489 58.9336 22.6562 59.5735C23.9347 60.2844 25.5682 60.3554 26.9886 60C28.6932 59.5735 30.2557 58.7204 31.7472 57.7962C33.8068 61.2796 35.0852 65.1896 35.5824 69.2417C35.7244 70.4502 35.7955 71.6588 35.7955 72.8673C18.821 72.0853 4.97159 59.2891 2.4858 42.7962ZM25.7812 48.128C24.3608 46.9905 22.8693 45.9242 21.2358 45.0711C19.6733 44.1469 17.9688 43.3649 16.2642 42.7962C15.4119 42.5118 14.5597 42.2275 13.6364 41.9431C13.5653 41.9431 13.4233 41.872 13.2812 41.872C13.1392 41.8009 13.1392 41.7299 13.1392 41.5877C13.0682 41.3744 12.9972 41.09 12.9261 40.8768C12.7841 40.4502 12.642 39.9526 12.5 39.5261C11.4347 35.9005 10.8665 32.1327 11.0085 28.3649C11.0085 27.8673 11.0795 27.2986 11.0795 26.8009C15.1989 27.2986 19.2472 28.6493 22.9403 30.6398C23.2244 34.1943 24.858 37.5355 27.4858 39.9526C28.054 40.5213 28.6932 40.9479 29.4034 41.3744C29.9006 41.6588 30.3977 42.0853 30.7528 42.5829C31.0369 42.9384 31.25 43.2938 31.392 43.7204C31.4631 44.0047 31.6761 44.5024 31.5341 44.7867C31.4631 45 31.179 45.2133 31.0369 45.3554C30.7528 45.5687 30.4687 45.782 30.1847 45.9953C29.4744 46.4929 28.7642 46.9905 28.125 47.4882C27.6989 47.7725 27.2727 48.0569 26.9176 48.3412C26.8466 48.4123 26.7045 48.4834 26.6335 48.5545C26.5625 48.5545 26.5625 48.6256 26.4915 48.6256C26.3494 48.6967 26.4915 48.6967 26.3494 48.6256C26.1364 48.4123 25.9233 48.2701 25.7812 48.128ZM40.2699 56.7299C40.1989 56.9431 40.0568 57.1564 39.9148 57.3697C39.7017 57.7251 39.4886 58.1517 39.2756 58.5071C38.4233 60.2133 37.642 62.0616 37.0739 63.91C36.9318 64.4076 36.7898 64.9052 36.6477 65.3318C36.2216 63.6256 35.6534 61.9905 34.9432 60.3554C34.5881 59.5735 34.233 58.7915 33.8068 58.0095C33.7358 57.7962 33.5938 57.654 33.5227 57.4408C33.4517 57.3697 33.1676 56.9431 33.1676 56.872C33.1676 56.8009 33.6648 56.5877 33.7358 56.5166C33.9489 56.3744 34.1619 56.2322 34.375 56.09C35.0852 55.5924 35.8665 55.0948 36.5767 54.6682C36.7188 54.5261 36.9318 54.455 37.1449 54.3128C37.2869 54.2417 37.429 54.2417 37.642 54.3128C37.9261 54.3839 38.2102 54.5261 38.4233 54.6682C39.0625 55.0948 39.4886 55.6635 39.9858 56.2322C40.0568 56.3033 40.1278 56.3744 40.1989 56.5166C40.2699 56.5877 40.2699 56.5877 40.2699 56.7299ZM39.5597 53.1043C39.7727 53.0332 39.9148 52.9621 40.1278 52.9621H40.2699C40.4119 52.891 40.554 52.6777 40.696 52.6066C41.0511 52.3223 41.4062 51.9668 41.7614 51.6825C40.696 50.4739 38.9205 51.1848 37.7131 51.7536C36.0795 52.6066 34.5881 53.673 33.0256 54.6682C31.392 55.7346 29.7585 56.872 27.9119 57.654C27.1307 58.0095 26.2784 58.2938 25.4261 58.2938C24.5739 58.2938 23.6506 58.1517 23.0114 57.5829C21.875 56.4455 22.9403 54.5261 23.7216 53.5308C24.7869 52.1801 26.2074 51.0427 27.6278 50.0474C29.1193 48.981 30.6818 47.9858 32.1023 46.8483C32.5994 46.4218 33.0966 45.9242 33.3097 45.3554C33.5938 44.6446 33.4517 43.8626 33.2386 43.1517C32.7415 41.6588 31.6051 40.4502 30.3267 39.6682C28.8352 38.7441 27.5568 37.3934 26.6335 35.9005C25.5682 34.1943 24.929 32.2749 24.858 30.2844C24.7869 28.8626 24.929 27.4408 25.142 26.09C25.7812 22.9621 27.2017 19.9763 29.3324 17.5592C30.3977 16.3507 31.6051 15.2844 32.8835 14.3602C33.5938 13.9337 34.304 13.5071 35.0142 13.1517C35.3693 12.9384 35.7955 12.7962 36.1506 12.654C36.2926 12.5829 36.5767 12.4408 36.7188 12.4408C36.8608 12.4408 37.1449 12.5829 37.2869 12.654C40.2699 13.9337 42.8977 15.9242 44.8864 18.5545C46.804 21.1137 48.0824 24.1706 48.4375 27.3697C48.5085 28.1517 48.5795 29.0047 48.5795 29.7867C48.5085 29.8578 48.5795 30.0711 48.5795 30.2133C48.5795 30.4976 48.5795 30.782 48.5085 31.0664C48.4375 31.9194 48.2244 32.7014 47.9403 33.4834L47.8693 33.4123C48.0114 33.4834 47.7273 34.1232 47.6562 34.2654C47.5142 34.6209 47.3722 34.9763 47.1591 35.2607C46.804 35.9005 46.4489 36.4692 46.0227 37.0379C45.5966 37.6066 45.0994 38.1043 44.6023 38.6019C44.3892 38.8152 44.1051 39.0284 43.892 39.2417C43.75 39.3128 43.608 39.455 43.4659 39.5261C43.2528 39.6682 43.0398 39.5972 42.8267 39.5972C40.483 39.3128 38.0682 38.7441 36.0085 37.5355C33.8778 36.327 32.1733 34.3365 31.7472 31.9194C31.7472 31.7773 31.6761 31.6351 31.6761 31.4929C31.6761 31.4218 31.6761 31.2796 31.6761 31.2085C31.7472 31.1374 31.6761 30.8531 31.6761 30.782C31.6761 30.6398 31.6761 30.4976 31.7472 30.3554C31.8182 29.8578 32.0312 29.3602 32.2443 28.8626C33.2386 26.9431 35.4403 25.9479 37.571 26.3033C39.7017 26.6588 41.3352 28.3649 41.6193 30.4976C41.9034 32.2749 41.1932 34.0521 39.5597 34.9052C39.3466 35.0474 39.0625 35.1185 38.8494 35.2607C38.7074 35.3318 38.6364 35.3318 38.6364 35.4028C38.6364 35.4739 38.7074 35.6872 38.7074 35.7583C38.7784 35.9716 38.7784 36.1848 38.8494 36.3981C38.9205 36.6825 38.9915 36.9668 39.0625 37.2512C41.0511 36.7536 42.7557 35.0474 43.3239 33.128C44.1051 30.4265 43.0398 27.5118 40.8381 25.8057C39.6307 24.8815 38.0682 24.3128 36.5767 24.3128C33.7358 24.3128 31.0369 26.1611 30.0426 28.8626C29.7585 29.6446 29.6165 30.4265 29.6165 31.2796C30.1847 31.2796 30.7528 31.2796 31.321 31.2796C31.108 31.2796 30.8949 31.2796 30.6108 31.2796C30.2557 31.2796 29.9716 31.2796 29.6165 31.2796C29.6165 35.6872 33.3807 38.9573 37.2869 40.3791C38.7074 40.8768 40.1278 41.2322 41.6193 41.5166C40.9801 42.5829 40.625 43.7915 40.9801 45C41.2642 45.9953 41.9744 46.8483 42.7557 47.5592C44.6023 49.1943 46.875 50.3318 48.7216 51.9668C49.5739 52.6777 50.2841 53.5308 50.7812 54.5261C51.1364 55.3081 51.4915 56.5166 50.9233 57.2986C50.3551 58.0806 49.2188 58.3649 48.3665 58.5782C47.2301 58.7915 46.0227 58.8626 44.9574 58.5071C42.6136 57.2986 41.6193 54.5261 39.5597 53.1043ZM60.9375 41.4455L61.0795 41.5166C57.1023 42.4408 53.267 44.0758 49.858 46.4218C49.3608 46.7773 48.9347 47.0616 48.4375 47.4171C48.2244 47.6303 47.9403 47.7725 47.7273 47.9858C47.6562 47.9858 47.6562 48.0569 47.5852 48.0569C47.4432 48.128 47.5142 48.1991 47.3722 48.128C47.2301 48.0569 47.0881 47.9147 46.946 47.8436C46.946 47.8436 46.946 47.8436 46.875 47.7725H46.946C46.804 47.6303 46.5909 47.5592 46.4489 47.4171C46.5909 47.4882 46.733 47.6303 46.875 47.7014C46.5199 47.4171 46.3068 47.2749 46.1648 47.2038C46.1648 47.2038 46.1648 47.2038 46.0938 47.2038C45.3835 46.7062 44.6023 46.2085 43.9631 45.5687C43.3239 45 42.7557 44.218 42.8977 43.2938C42.9688 42.7962 43.1818 42.3697 43.4659 41.9431C43.679 41.5877 43.9631 41.2322 44.3182 41.019C45.1705 40.4502 46.0227 39.7393 46.733 38.9573C48.2244 37.3934 49.2898 35.4739 49.929 33.4123C50.142 32.8436 50.2131 32.2038 50.3551 31.6351C50.3551 31.4929 50.4261 31.3507 50.4261 31.2085C50.4261 31.0663 50.4261 30.9242 50.5682 30.782C50.7812 30.5687 51.1364 30.4265 51.4205 30.2844C52.4858 29.7156 53.6222 29.218 54.7585 28.7204C57.3864 27.654 60.1562 26.9431 62.9972 26.5877C63.3523 30.6398 62.9261 34.763 61.7898 38.6019C61.6477 39.1706 61.4347 39.6682 61.2926 40.237C61.2216 40.5213 61.0795 40.7346 61.0085 41.019C60.9375 41.2322 60.8665 41.3744 60.9375 41.4455ZM62.522 12.4408C64.6037 14.8621 64.5426 14.7299 66.6193 17.4882C68.608 20.4028 70.1705 23.6019 71.2358 26.9431C72.3722 30.5687 72.9403 34.4076 72.8693 38.1754C72.8693 39.1706 72.7983 40.0948 72.7273 41.09C69.5312 40.6635 66.3352 40.6635 63.1392 41.1611C64.6307 36.8246 65.2699 32.2749 65.0568 27.654C64.9858 26.8009 64.9148 25.9479 64.8438 25.0948C64.8438 24.9526 64.8438 24.6682 64.7727 24.5972C64.7017 24.5972 64.4886 24.5972 64.4176 24.5972C64.2756 24.5972 64.1335 24.5972 63.9915 24.6682C61.7898 24.8815 59.7301 25.3081 57.5994 25.8768C55.1847 26.5877 52.8409 27.5118 50.6392 28.6493C50.4972 25.4502 49.5739 22.2512 47.9403 19.4787C46.3778 16.7062 44.1051 14.3602 41.4773 12.5829C40.1278 11.6588 38.7074 10.9479 37.1449 10.4502C36.9318 10.3791 36.8608 10.3081 36.6477 10.3791C36.3636 10.5213 36.0085 10.5924 35.7244 10.7346C34.9432 11.019 34.233 11.3744 33.5227 11.8009C30.7528 13.3649 28.3381 15.5687 26.5625 18.1991C24.7869 20.9005 23.6506 23.9573 23.2955 27.1564C23.2244 27.5829 23.2244 27.9384 23.2244 28.3649C19.2472 26.3033 14.9858 25.0948 10.5114 24.6682C10.2983 24.6682 9.94318 24.5261 9.73011 24.5972C9.65909 24.5972 9.65909 24.5972 9.65909 24.5972C9.58807 24.6682 9.65909 24.8815 9.58807 24.9526C9.51705 25.8057 9.375 26.6588 9.375 27.4408C9.23295 29.6446 9.375 31.7773 9.65909 33.91C10.0142 36.3981 10.5824 38.8152 11.3636 41.1611C8.4517 40.5924 5.46875 40.5213 2.55682 40.8057C2.4858 39.6682 2.41477 38.6019 2.41477 37.4645C2.41477 17.9147 18.3239 1.99052 37.8551 1.99052C45.4545 1.99052 48.5639 3.04834 54.9616 6.41019C55.6882 6.99739 60.5028 10.3791 62.522 12.4408ZM38.8494 72.9384C38.6364 72.9384 38.4233 72.9384 38.2102 72.9384C38.0682 72.9384 37.9261 72.9384 37.7131 72.9384C37.7131 68.8863 38.5653 64.8341 40.1989 61.1374C40.625 60.0711 41.1222 59.0758 41.6903 58.0806C42.7557 59.1469 44.1051 59.9289 45.6676 60.1422C47.2301 60.3554 49.0057 60.2133 50.5682 59.6446C51.6335 59.218 52.6989 58.5071 53.196 57.3697C53.7642 56.09 53.4091 54.5261 52.8409 53.2464C52.0597 51.6114 50.7102 50.3318 49.2898 49.2654C51.7045 47.346 54.4034 45.782 57.3153 44.6446C60.2273 43.5071 63.3523 42.8673 66.4062 42.654C68.4659 42.5118 70.4545 42.5829 72.5142 42.8673C72.4432 43.1517 72.4432 43.3649 72.3722 43.6493C72.3722 43.6493 72.3722 43.6493 72.3722 43.5782C72.3722 43.5782 72.3722 43.5782 72.3722 43.6493C71.3068 49.9052 68.3949 55.9479 64.2045 60.7109C60.0142 65.545 54.5455 69.1706 48.4375 71.1611C45.4545 72.1564 42.3295 72.7251 39.2045 72.8673C38.9915 72.9384 38.9205 72.9384 38.8494 72.9384ZM37.5 0C16.8324 0 0 16.8483 0 37.5355C0 46.564 3.19602 54.8815 8.52273 61.3507C9.94318 63.1991 11.5767 64.8341 13.4233 66.2559C19.9574 71.7299 28.3381 75 37.5 75C58.1676 75 75 58.1517 75 37.4645C75 16.7773 58.1676 0 37.5 0Z" fill="#EEEEF2"/>
</svg>
