<svg xmlns="http://www.w3.org/2000/svg" width="128" height="56" viewBox="0 0 128 56" fill="#ffffff"><path class="nav__logo__title" fill-rule="evenodd" clip-rule="evenodd" d="m70.16,23.485h8.271v-.626h-8.269v-10.543s-.002-.008-.002-.008v-1.218h.002v-.017h10.407v-.586h-14.239v.4l.26.039c.876.073,1.492.921,1.492,2.068v24.576h12.647l.036-.26h.031c.017-.109.033-.217.049-.335h-10.684v-13.489Zm35.031,10.684l-14.17-23.685h-3.63l.064.443.26.034c.876.073,1.492.925,1.492,2.068v22.064c0,.108-.004.212-.02.313v2.198h.7V12.55c5.127,8.051,10.25,17.408,15.339,25.458h.652V10.484h-.686v23.685Zm12.125,2.805v-13.489h8.271v-.626h-8.269v-10.543s-.002-.008-.002-.008v-1.218h.002v-.017h10.407v-.586h-14.239v.4l.26.039c.876.073,1.492.921,1.492,2.068v24.576h12.647l.036-.26h.031c.017-.109.033-.217.049-.335h-10.685ZM8.478,22.135h.001c1.175.372,2.298.854,3.335,1.437l.043.023.038-.029c.807-.628,1.623-1.259,2.444-1.893l.094-.073-.099-.067c-1.147-.78-2.416-1.397-3.776-1.832-4.833-1.552-8.341-4.684-8.341-7.445,0-4.174,2.817-7.204,6.697-7.204,1.125,0,2.586.291,4.003.798,1.162.519,2.299,1.738,2.826,3.032l1.271,3.182.415-.067v-5.372l-.037-.025c-2.193-1.46-5.74-2.52-8.436-2.52C3.904,4.081.235,7.998.235,13.394c0,3.539,3.466,7.215,8.244,8.742Zm51.328,14.915v-.14l-.007.14h.007Zm-10.636-26.533h-3.83v.409l.26.034c.877.073,1.495.925,1.495,2.068v24.573h12.677l.027-.552h-10.629V10.518ZM15.688,26.411c.656.849,1.077,1.708,1.248,2.557l.017.091c.023.124.04.248.053.384.011.129.018.246.018.363,0,3.846-2.834,6.635-6.739,6.635-1.2,0-2.62-.158-4.219-.47-.101-.029-.203-.065-.305-.102l-.096-.037c-.071-.028-.144-.057-.215-.088-.034-.015-.07-.029-.104-.046-.076-.034-.153-.071-.228-.109l-.081-.04c-.097-.05-.193-.102-.288-.158-.029-.016-.056-.033-.083-.05l-.036-.022c-.058-.036-.117-.071-.175-.11-.047-.029-.094-.06-.14-.091-.05-.034-.1-.07-.15-.105l-.036-.025c-.037-.026-.074-.053-.111-.081-.031-.023-.063-.048-.094-.073l-.034-.026c-.1-.078-.2-.158-.298-.24l-.093-.079c-.479-.415-.924-.887-1.322-1.403l-.044-.057-2.133,1.868.06.119c.766.51,1.666.868,2.909,1.266l.021.008c.325.104.665.203,1.008.294l.033.009c.173.045.347.09.532.133.174.042.349.081.526.119l.029.006c.174.037.349.073.526.107l.064.012c.349.067.706.126,1.067.178l.084.012c.175.025.351.048.531.071l.029.003c.167.02.334.039.501.056l.094.009c.171.017.342.032.514.045l.091.006c.157.011.312.022.468.029l.074.005c.168.009.338.014.505.02l.113.003c.171.005.341.006.511.006.155,0,.308-.003.461-.011.031,0,.061-.003.091-.006l.103-.006c.086-.005.173-.011.257-.019.038-.003.077-.008.114-.012l.117-.012c.071-.008.143-.016.214-.025.044-.006.089-.014.133-.022l.12-.02c.061-.009.121-.019.181-.031.046-.009.091-.019.135-.028l.123-.026c.056-.011.113-.023.167-.037.046-.011.091-.023.137-.034l.118-.031c.054-.014.108-.028.161-.043.051-.014.101-.031.151-.046l.069-.022c.063-.019.124-.039.185-.059.053-.019.106-.037.158-.057l.074-.028.163-.06c.057-.023.113-.047.168-.07l.051-.022c.056-.023.11-.047.164-.071.053-.025.105-.05.157-.074l.076-.037c.047-.023.094-.045.14-.07.063-.033.124-.067.191-.102l.021-.012c.05-.028.1-.054.148-.084.063-.037.126-.074.187-.113l.017-.011c.049-.03.097-.061.144-.09.063-.04.124-.082.197-.132.047-.032.093-.065.138-.098.061-.043.121-.09.193-.144.044-.034.088-.067.131-.102.06-.048.118-.096.177-.146.044-.039.09-.076.134-.115.058-.051.116-.104.171-.156.041-.039.083-.079.124-.118.057-.056.111-.112.167-.169.039-.04.077-.081.114-.121.054-.059.108-.119.161-.18.036-.04.07-.082.105-.122.053-.064.106-.127.156-.192.033-.042.064-.082.096-.124.051-.067.101-.135.15-.205.03-.042.058-.084.087-.126.049-.071.097-.143.143-.217.026-.042.053-.084.079-.125.046-.076.091-.152.135-.229.021-.037.041-.074.068-.126.044-.081.087-.16.128-.242l.06-.124c.041-.084.081-.169.12-.256l.053-.122c.039-.088.076-.178.11-.268l.044-.118c.034-.093.068-.188.1-.284l.036-.113c.031-.099.063-.198.09-.299l.029-.105c.029-.105.056-.211.08-.316l.02-.096c.024-.112.047-.223.068-.335l.014-.085c.02-.118.04-.237.056-.358l.007-.067c.016-.127.03-.256.041-.384l.003-.039c.024-.294.036-.57.036-.843,0-1.238-.382-2.53-1.1-3.755l-2.218,1.543Zm2.218-1.545h-.001s0,.001,0,.002h0v-.002Zm10.619-1.38h8.271v-.626h-8.269v-11.786h10.407v-.586h-14.239v.4l.26.039c.876.073,1.492.921,1.492,2.068v24.576h12.647l.036-.26h.031c.017-.109.033-.217.049-.335h-10.684v-13.489Zm0-11.05h.001c0,.32-.001,1.218-.001,1.218v-1.218Z"></path><path class="nav__logo__symbol" fill-rule="evenodd" clip-rule="evenodd" d="m35.076,4.374c1.112,0,2.013-.979,2.013-2.187s-.901-2.187-2.013-2.187-2.013.979-2.013,2.187.901,2.187,2.013,2.187Zm9.344-2.004h-.001v-.002c-.532.062-10.626,6.86-22.736,15.672C9.573,26.85.258,34.394.002,34.905c0,0,.046.105.07.113.237.076,10.252-6.359,22.612-15.352C35.045,10.673,44.705,2.802,44.564,2.571c-.014-.023-.144-.202-.144-.202Z"></path><path class="nav__logo__subtitle" fill-rule="evenodd" clip-rule="evenodd" d="m28.557,46.132l-4.177,9.867h.713l1.154-2.778h5.266l1.168,2.778h.713l-4.177-9.867h-.662Zm-2.05,6.484l2.374-5.695,2.386,5.695h-4.76Zm15.691,2.453l-3.672-8.937h-.726l4.047,9.867h.662l4.047-9.867h-.686l-3.672,8.937Zm8.77.93h.662v-9.867h-.662v9.867Zm9.245-9.866l-4.177,9.867h.713l1.154-2.778h5.266l1.168,2.778h.713l-4.177-9.867h-.662Zm-2.05,6.484l2.374-5.695,2.387,5.695h-4.76Zm10.681-5.837h3.268v9.219h.662v-9.219h3.269v-.648h-7.199v.648Zm11.612,9.219h.662v-9.867h-.662v9.867Zm9.789-10.006c-2.71,0-4.721,2.142-4.721,5.003s2.024,5.005,4.721,5.005,4.722-2.13,4.722-5.005-2.011-5.003-4.722-5.003Zm.001,9.345c-2.322,0-4.061-1.846-4.061-4.341s1.753-4.341,4.061-4.341,4.047,1.846,4.047,4.341-1.724,4.341-4.047,4.341Zm15.861-9.206v8.57l-6.175-8.57h-.558v9.867h.662v-8.57l6.188,8.57h.545v-9.867h-.662Z"></path></svg>