<svg xmlns="http://www.w3.org/2000/svg" xmlns:xlink="http://www.w3.org/1999/xlink" width="212" height="37" viewBox="0 0 212 37">
    <defs>
        <path id="a" d="M.016.012h17.57V30.14H.015z"/>
    </defs>
    <g fill="none" fill-rule="evenodd">
        <path fill="#EEEEF2" d="M108.33 14.39a4.113 4.113 0 0 1-.1-.103l.014-.011.087.115"/>
        <path fill="#EEEEF2" d="M124.176 21.269l-.014.01-.086-.114c.034.034.067.068.1.104"/>
        <g transform="translate(107.394 4)">
            <mask id="b" fill="#fff">
                <use xlink:href="#a"/>
            </mask>
            <path fill="#EEEEF2" d="M16.606 18.299a7.83 7.83 0 0 1 .76 5.625c-1.559 6.345-9.17 7.277-14.594 5.266C1.6 28.756.016 27.922.016 27.922s.758-2.943.758-2.95c4.98 2.758 9.435 2.694 11.897 1.525 1.787-.849 2.814-2.626 2.564-4.395-.37-2.616-2.639-3.597-4.539-4.526-.37-.128-.735-.248-1.083-.367-1.566-.539-3.2-1.042-4.683-1.79-1.07-.564-2.057-1.247-2.886-2.129a7.239 7.239 0 0 1-.988-1.332l-.06-.105a7.832 7.832 0 0 1-.76-5.625C1.793-.118 9.203-1.05 14.628.96c1.171.434 2.755 1.268 2.755 1.268s-.758 2.943-.758 2.95C11.647 2.421 7.392 2.485 4.931 3.655c-1.788.849-2.815 2.624-2.564 4.394.37 2.614 2.633 3.595 4.532 4.523.372.129.74.25 1.09.37 1.565.54 3.2 1.043 4.683 1.79 1.069.565 2.057 1.247 2.885 2.128.383.408.713.855.99 1.333l.059.106" mask="url(#b)"/>
        </g>
        <path fill="#EEEEF2" d="M108.33 16.113a4.113 4.113 0 0 1-.1-.104l.014-.011.087.115"/>
        <path fill="#EEEEF2" d="M124.176 22.13l-.014.01-.086-.114c.034.034.067.068.1.104"/>
        <path fill="#EEEEF2" d="M95.863 23.744c-1.537.838-3.454.835-5.698-.012-1.657-.625-3.545-.795-5.085.203-.563.365-1.029.81-1.336 1.395-.32.612-.572 1.254-.84 1.889-.466 1.108-.891 2.167-1.364 3.265-.373.866-1.17 2.794-1.17 2.794h-2.025l.028-.068c.286-.69.576-1.38.864-2.07l1.6-3.831c.35-.839.641-1.707 1.109-2.495a7.088 7.088 0 0 1 1.627-1.854c.414-.335.87-.621 1.359-.844 1.7-.772 3.67-.746 5.857.077 1.07.404 2.288.69 3.43.418.353-.084.902-.208 1.119-.524.127-.186.021-.39-.042-.578-.077-.226-.17-.446-.245-.673a602.961 602.961 0 0 0-1.748-5.246 1782.663 1782.663 0 0 0-2.355-6.946L85.78 20.312l-.026.006c-1.399.216-2.447 1.058-2.447 1.058L90.58 4h2.845l.054.163.173.518.267.804.346 1.04a70697.036 70697.036 0 0 1 .861 2.59l.483 1.452.495 1.49.492 1.479.472 1.419.436 1.31.382 1.15.314.943c.214.645.51 1.341.342 2.04-.16.666-.524 1.322-.944 1.868a5.538 5.538 0 0 1-1.735 1.478M102.993 34.139h-4.157l-.012-.034-.103-.29-.276-.785-.405-1.146-.485-1.376-.52-1.476-.51-1.444c-.15-.426-.104-.289-.22-.617-.065-.186-.35-.944-.354-.97A5.7 5.7 0 0 0 97.9 24.7c.514-.533 1.007-1.288 1.155-1.755l.925 2.623-.1-.284.513 1.46.524 1.49.511 1.456.476 1.355 1.088 3.095M69.542 33.278h3.521V4h-3.52zM65.14 31.504v1.774H48.416V4h3.588v27.504zM43.134 31.4v1.878H26.408V4h16.726v1.773H30.095v11.933H40.71v1.817H30.095V31.4zM21.127 4v29.278h-3.741V19.523H3.74v13.755H0V4h3.74v13.706h13.646V4z"/>
        <path fill="#EEEEF2" fill-rule="nonzero" d="M163.995 18.901h-2.516V8.792c0-1.206.028-2.163.085-2.87-.164.172-.365.361-.605.568-.239.207-1.04.864-2.404 1.97l-1.263-1.595 4.604-3.62h2.1v15.656zm15.742-7.828c0 2.72-.438 4.74-1.312 6.061-.875 1.32-2.211 1.981-4.01 1.981-1.742 0-3.063-.682-3.963-2.045-.9-1.364-1.349-3.363-1.349-5.997 0-2.763.437-4.799 1.312-6.109.874-1.31 2.208-1.965 4-1.965 1.749 0 3.073.685 3.972 2.056.9 1.37 1.35 3.377 1.35 6.018zm-8.085 0c0 2.135.22 3.659.658 4.573.44.913 1.14 1.37 2.105 1.37.963 0 1.668-.464 2.114-1.392.447-.928.67-2.445.67-4.55 0-2.1-.223-3.618-.67-4.557-.446-.939-1.15-1.408-2.114-1.408s-1.666.46-2.105 1.381c-.439.92-.658 2.449-.658 4.583zm20.603 0c0 2.72-.438 4.74-1.312 6.061-.875 1.32-2.211 1.981-4.01 1.981-1.742 0-3.063-.682-3.963-2.045-.899-1.364-1.349-3.363-1.349-5.997 0-2.763.437-4.799 1.312-6.109.875-1.31 2.208-1.965 4-1.965 1.749 0 3.073.685 3.972 2.056.9 1.37 1.35 3.377 1.35 6.018zm-8.085 0c0 2.135.22 3.659.658 4.573.44.913 1.14 1.37 2.105 1.37.963 0 1.668-.464 2.114-1.392.447-.928.67-2.445.67-4.55 0-2.1-.223-3.618-.67-4.557-.446-.939-1.15-1.408-2.114-1.408s-1.666.46-2.105 1.381c-.439.92-.658 2.449-.658 4.583zm12.015-3.137c0 1.063.103 1.856.31 2.377.207.521.546.782 1.017.782.943 0 1.414-1.053 1.414-3.16 0-2.105-.471-3.158-1.414-3.158-.47 0-.81.26-1.017.781-.207.522-.31 1.314-.31 2.378zm4.818-.022c0 1.642-.294 2.875-.883 3.7-.589.825-1.458 1.237-2.608 1.237-1.085 0-1.925-.427-2.521-1.28-.596-.853-.895-2.072-.895-3.657 0-3.262 1.14-4.894 3.416-4.894 1.121 0 1.983.423 2.587 1.27.603.845.904 2.054.904 3.624zm5.376 6.275c0 1.064.105 1.86.316 2.388.21.529.551.793 1.023.793.935 0 1.402-1.06 1.402-3.18 0-2.092-.467-3.138-1.402-3.138-.472 0-.813.257-1.023.77-.21.515-.316 1.304-.316 2.367zm4.819 0c0 1.642-.296 2.874-.889 3.695-.593.82-1.456 1.231-2.591 1.231-1.086 0-1.928-.423-2.528-1.269-.6-.846-.9-2.065-.9-3.657 0-3.262 1.143-4.893 3.428-4.893 1.099 0 1.954.42 2.564 1.263.61.843.916 2.053.916 3.63zm-3.18-10.944l-8.685 15.656h-2.078l8.685-15.656h2.077zm-44.965 24.142c0 .803-.263 1.418-.79 1.846-.526.428-1.274.642-2.246.642h-.8v2.877h-1.256v-7.69h2.214c.961 0 1.68.196 2.16.589.478.392.718.971.718 1.736zm-3.835 1.43h.668c.645 0 1.119-.112 1.42-.336.302-.225.453-.575.453-1.052 0-.442-.135-.772-.406-.99-.27-.217-.69-.325-1.262-.325h-.873v2.703zm11.399-3.755v4.976c0 .568-.122 1.065-.366 1.491a2.436 2.436 0 0 1-1.057.984c-.461.23-1.013.344-1.654.344-.954 0-1.696-.252-2.226-.757s-.794-1.2-.794-2.083v-4.955h1.263v4.865c0 .635.147 1.103.441 1.405.295.301.747.452 1.358.452 1.185 0 1.778-.622 1.778-1.867v-4.855h1.257zm3.224 3.576h.874c.585 0 1.01-.108 1.273-.326.263-.217.394-.54.394-.968 0-.434-.142-.746-.426-.936-.284-.19-.712-.284-1.284-.284h-.83v2.514zm0 1.042v3.072h-1.257v-7.69h2.173c.992 0 1.727.185 2.204.557.477.372.715.933.715 1.683 0 .958-.498 1.64-1.494 2.047l2.173 3.403h-1.431l-1.841-3.072h-1.242zm9.979 3.072h-4.35v-7.69h4.35v1.062h-3.093v2.094h2.898v1.052h-2.898v2.414h3.093v1.068zm11.289-3.856c0 1.252-.313 2.225-.94 2.92-.625.694-1.512 1.041-2.658 1.041-1.161 0-2.053-.344-2.675-1.033-.623-.69-.934-1.669-.934-2.938 0-1.27.313-2.245.939-2.925.626-.68 1.52-1.02 2.68-1.02 1.143 0 2.027.345 2.651 1.036.624.69.937 1.664.937 2.92zm-5.87 0c0 .947.19 1.665.572 2.154.383.49.95.734 1.7.734.746 0 1.31-.242 1.69-.726.381-.484.571-1.204.571-2.162 0-.943-.188-1.658-.565-2.146-.377-.487-.939-.731-1.686-.731-.754 0-1.323.244-1.707.731-.384.488-.576 1.203-.576 2.146zm7.521 3.856v-7.69h1.257v7.69h-1.257zm3.288 0v-7.69h1.257v6.612h3.256v1.078h-4.513zm10.273-2.088c0 .684-.247 1.22-.742 1.61-.494.389-1.176.583-2.046.583-.87 0-1.581-.135-2.135-.405v-1.189c.35.165.723.295 1.117.39a4.74 4.74 0 0 0 1.102.142c.498 0 .866-.095 1.102-.284a.926.926 0 0 0 .356-.763.956.956 0 0 0-.327-.731c-.217-.2-.666-.437-1.346-.71-.702-.285-1.196-.609-1.484-.974-.287-.364-.431-.803-.431-1.315 0-.641.228-1.146.684-1.515.456-.368 1.068-.552 1.836-.552.736 0 1.469.161 2.198.484l-.4 1.026c-.683-.288-1.293-.432-1.83-.432-.407 0-.715.089-.926.266a.872.872 0 0 0-.315.702c0 .2.042.371.126.513.084.142.223.276.415.403.193.126.54.292 1.042.5.565.234.978.453 1.241.657.263.203.456.433.58.689.122.256.183.558.183.905z"/>
        <path stroke="#EEEEF2" stroke-linecap="square" stroke-width=".9" d="M140.535 1.183v34.504"/>
    </g>
</svg>